<svg width="211" height="118" viewBox="0 0 211 118" fill="none" xmlns="http://www.w3.org/2000/svg">
<rect x="0.5" y="0.5" width="210" height="117" rx="15.5" stroke="#CCCCCC" stroke-linejoin="round" stroke-dasharray="6 6"/>
<path d="M109.94 32.8999C113.54 33.2099 115.01 35.0599 115.01 39.1099V39.2399C115.01 43.7099 113.22 45.4999 108.75 45.4999H102.24C97.7705 45.4999 95.9805 43.7099 95.9805 39.2399V39.1099C95.9805 35.0899 97.4305 33.2399 100.97 32.9099" stroke="#1A1A1A" stroke-width="1.5" stroke-linecap="round" stroke-linejoin="round"/>
<path d="M105.5 26V38.88" stroke="#1A1A1A" stroke-width="1.5" stroke-linecap="round" stroke-linejoin="round"/>
<path d="M108.85 36.6499L105.5 39.9999L102.15 36.6499" stroke="#1A1A1A" stroke-width="1.5" stroke-linecap="round" stroke-linejoin="round"/>
<path d="M25.2131 74L25.4371 72.992H28.6991C29.3431 72.992 29.9358 72.866 30.4771 72.614C31.0185 72.362 31.4898 72.0167 31.8911 71.578C32.2925 71.1393 32.6004 70.64 32.8151 70.08C33.0391 69.52 33.1511 68.932 33.1511 68.316C33.1511 67.6627 33.0251 67.084 32.7731 66.58C32.5211 66.0667 32.1665 65.6653 31.7091 65.376C31.2611 65.0773 30.7291 64.928 30.1131 64.928H27.2711L27.4951 63.92H30.2251C31.0465 63.92 31.7604 64.1067 32.3671 64.48C32.9831 64.8533 33.4638 65.3667 33.8091 66.02C34.1545 66.664 34.3271 67.4013 34.3271 68.232C34.3271 68.988 34.1825 69.716 33.8931 70.416C33.6131 71.1067 33.2165 71.7227 32.7031 72.264C32.1898 72.796 31.5831 73.2207 30.8831 73.538C30.1925 73.846 29.4411 74 28.6291 74H25.2131ZM24.5271 74L26.8371 63.92H27.9851L25.6751 74H24.5271ZM35.0265 74L36.6785 66.86H37.7285L37.3085 68.68H37.3785L36.1465 74H35.0265ZM37.0565 70.038L37.2525 68.33C37.4951 67.854 37.8405 67.4667 38.2885 67.168C38.7458 66.8693 39.2498 66.72 39.8005 66.72C39.9591 66.72 40.0945 66.734 40.2065 66.762C40.3185 66.7807 40.4071 66.804 40.4725 66.832L40.2205 67.91C40.1458 67.882 40.0291 67.8587 39.8705 67.84C39.7211 67.812 39.5765 67.798 39.4365 67.798C38.8298 67.798 38.3211 67.9893 37.9105 68.372C37.4998 68.7547 37.2151 69.31 37.0565 70.038ZM43.6365 74.14C43.0391 74.14 42.5118 74.0093 42.0545 73.748C41.5971 73.4773 41.2378 73.104 40.9765 72.628C40.7245 72.152 40.5985 71.6013 40.5985 70.976C40.5985 70.388 40.7011 69.8373 40.9065 69.324C41.1211 68.8107 41.4105 68.358 41.7745 67.966C42.1478 67.574 42.5771 67.2707 43.0625 67.056C43.5478 66.832 44.0705 66.72 44.6305 66.72C45.2465 66.72 45.7831 66.8507 46.2405 67.112C46.6978 67.3733 47.0525 67.742 47.3045 68.218C47.5565 68.6847 47.6825 69.2307 47.6825 69.856C47.6825 70.444 47.5751 70.9993 47.3605 71.522C47.1458 72.0353 46.8518 72.488 46.4785 72.88C46.1051 73.272 45.6758 73.58 45.1905 73.804C44.7051 74.028 44.1871 74.14 43.6365 74.14ZM43.6925 73.188C44.0751 73.188 44.4391 73.104 44.7845 72.936C45.1298 72.7587 45.4331 72.5207 45.6945 72.222C45.9558 71.914 46.1611 71.5593 46.3105 71.158C46.4598 70.7567 46.5345 70.3273 46.5345 69.87C46.5345 69.198 46.3571 68.666 46.0025 68.274C45.6571 67.8727 45.1811 67.672 44.5745 67.672C44.1825 67.672 43.8138 67.756 43.4685 67.924C43.1325 68.092 42.8338 68.3253 42.5725 68.624C42.3205 68.9227 42.1198 69.2727 41.9705 69.674C41.8211 70.066 41.7465 70.4907 41.7465 70.948C41.7465 71.6293 41.9238 72.1753 42.2785 72.586C42.6331 72.9873 43.1045 73.188 43.6925 73.188ZM52.3582 74.126C51.8822 74.126 51.4669 74.0373 51.1122 73.86C50.7576 73.6733 50.4822 73.4167 50.2862 73.09C50.0902 72.7633 49.9876 72.39 49.9782 71.97L50.2022 71.956L49.0542 76.87H47.9342L50.2442 66.86H51.2942L50.9582 68.288L50.8882 68.232C51.1589 67.7467 51.5276 67.3733 51.9942 67.112C52.4702 66.8507 52.9929 66.72 53.5622 66.72C54.3929 66.72 55.0462 66.986 55.5222 67.518C55.9982 68.0407 56.2362 68.7593 56.2362 69.674C56.2362 70.29 56.1336 70.8687 55.9282 71.41C55.7322 71.942 55.4522 72.4133 55.0882 72.824C54.7336 73.2253 54.3229 73.5427 53.8562 73.776C53.3896 74.0093 52.8902 74.126 52.3582 74.126ZM52.3162 73.146C52.7082 73.146 53.0722 73.062 53.4082 72.894C53.7442 72.7167 54.0382 72.4787 54.2902 72.18C54.5422 71.872 54.7382 71.5173 54.8782 71.116C55.0182 70.7147 55.0882 70.29 55.0882 69.842C55.0882 69.1793 54.9249 68.6567 54.5982 68.274C54.2809 67.8913 53.8329 67.7 53.2542 67.7C52.9462 67.7 52.6476 67.756 52.3582 67.868C52.0782 67.98 51.8216 68.1387 51.5882 68.344C51.3549 68.54 51.1496 68.778 50.9722 69.058C50.7949 69.3287 50.6596 69.6273 50.5662 69.954C50.4729 70.2807 50.4262 70.6213 50.4262 70.976C50.4262 71.648 50.5989 72.18 50.9442 72.572C51.2896 72.9547 51.7469 73.146 52.3162 73.146ZM63.0772 74.154C62.5079 74.154 62.0132 74.028 61.5932 73.776C61.1732 73.5147 60.8465 73.1553 60.6132 72.698C60.3799 72.2313 60.2632 71.69 60.2632 71.074C60.2632 70.5887 60.3285 70.1313 60.4592 69.702C60.5992 69.2727 60.7905 68.876 61.0332 68.512C61.2852 68.148 61.5792 67.8353 61.9152 67.574C62.2512 67.3127 62.6199 67.112 63.0212 66.972C63.4225 66.8227 63.8472 66.748 64.2952 66.748C64.6779 66.748 65.0279 66.8087 65.3452 66.93C65.6625 67.0513 65.9379 67.224 66.1712 67.448C66.4045 67.6627 66.5865 67.924 66.7172 68.232C66.8479 68.5307 66.9132 68.862 66.9132 69.226H65.8772C65.8679 68.9087 65.7932 68.638 65.6532 68.414C65.5132 68.19 65.3219 68.0173 65.0792 67.896C64.8365 67.7653 64.5472 67.7 64.2112 67.7C63.8939 67.7 63.5952 67.756 63.3152 67.868C63.0352 67.98 62.7785 68.1433 62.5452 68.358C62.3119 68.5633 62.1112 68.806 61.9432 69.086C61.7752 69.366 61.6445 69.6787 61.5512 70.024C61.4579 70.3693 61.4112 70.7333 61.4112 71.116C61.4112 71.7787 61.5652 72.2967 61.8732 72.67C62.1812 73.034 62.6152 73.216 63.1752 73.216C63.6792 73.216 64.1272 73.076 64.5192 72.796C64.9112 72.516 65.1959 72.1333 65.3732 71.648H66.4092C66.1572 72.4133 65.7279 73.0247 65.1212 73.482C64.5239 73.93 63.8425 74.154 63.0772 74.154ZM70.069 74.14C69.257 74.14 68.655 73.8833 68.263 73.37C67.871 72.8567 67.7777 72.166 67.983 71.298L69.005 66.86H70.125L69.117 71.242C68.9677 71.8673 69.0097 72.348 69.243 72.684C69.4857 73.02 69.873 73.188 70.405 73.188C71.0397 73.188 71.595 72.978 72.071 72.558C72.5563 72.1287 72.8877 71.5453 73.065 70.808L72.855 72.558C72.5003 73.062 72.0757 73.454 71.581 73.734C71.0957 74.0047 70.5917 74.14 70.069 74.14ZM72.393 74L72.785 72.32H72.715L73.975 66.86H75.095L73.443 74H72.393ZM78.4678 74.14C77.8985 74.14 77.3991 74.042 76.9698 73.846C76.5405 73.65 76.2091 73.3793 75.9758 73.034C75.7425 72.6793 75.6351 72.2687 75.6538 71.802H76.7318C76.7411 72.0913 76.8205 72.3433 76.9698 72.558C77.1285 72.7633 77.3385 72.9267 77.5998 73.048C77.8705 73.16 78.1785 73.216 78.5238 73.216C78.9905 73.216 79.3638 73.1133 79.6438 72.908C79.9331 72.7027 80.0778 72.4273 80.0778 72.082C80.0778 71.8487 80.0031 71.6573 79.8538 71.508C79.7045 71.3493 79.4665 71.2047 79.1398 71.074L78.1178 70.64C77.6045 70.4253 77.2218 70.178 76.9698 69.898C76.7271 69.6087 76.6058 69.2633 76.6058 68.862C76.6058 68.442 76.7178 68.0733 76.9418 67.756C77.1658 67.4293 77.4691 67.1773 77.8518 67C78.2438 66.8133 78.6918 66.72 79.1958 66.72C79.6905 66.72 80.1291 66.8087 80.5118 66.986C80.8945 67.1633 81.1931 67.4107 81.4078 67.728C81.6318 68.036 81.7485 68.4047 81.7578 68.834H80.6938C80.6658 68.582 80.5818 68.3673 80.4418 68.19C80.3111 68.0127 80.1291 67.8773 79.8958 67.784C79.6718 67.6907 79.4011 67.644 79.0838 67.644C78.6638 67.644 78.3278 67.7373 78.0758 67.924C77.8238 68.1107 77.6978 68.3673 77.6978 68.694C77.6978 68.9087 77.7725 69.0953 77.9218 69.254C78.0711 69.4033 78.3091 69.548 78.6358 69.688L79.6298 70.108C80.1525 70.332 80.5351 70.5933 80.7778 70.892C81.0298 71.1907 81.1558 71.5453 81.1558 71.956C81.1558 72.3947 81.0438 72.782 80.8198 73.118C80.6051 73.4447 80.2971 73.6967 79.8958 73.874C79.4945 74.0513 79.0185 74.14 78.4678 74.14ZM85.213 74.126C84.4196 74.126 83.883 73.9253 83.603 73.524C83.323 73.1133 83.2623 72.5673 83.421 71.886L84.961 65.194L86.179 64.774L84.499 72.054C84.415 72.4367 84.4523 72.7213 84.611 72.908C84.779 73.0853 85.0916 73.174 85.549 73.174C85.7356 73.174 85.8943 73.1647 86.025 73.146C86.165 73.118 86.2816 73.0853 86.375 73.048L86.165 74C86.0623 74.0373 85.9316 74.0653 85.773 74.084C85.6143 74.112 85.4276 74.126 85.213 74.126ZM82.889 67.812L83.099 66.86H87.803L87.593 67.812H82.889ZM90.8022 74.14C90.2049 74.14 89.6776 74.0093 89.2202 73.748C88.7629 73.4773 88.4036 73.104 88.1422 72.628C87.8902 72.152 87.7642 71.6013 87.7642 70.976C87.7642 70.388 87.8669 69.8373 88.0722 69.324C88.2869 68.8107 88.5762 68.358 88.9402 67.966C89.3136 67.574 89.7429 67.2707 90.2282 67.056C90.7136 66.832 91.2362 66.72 91.7962 66.72C92.4122 66.72 92.9489 66.8507 93.4062 67.112C93.8636 67.3733 94.2182 67.742 94.4702 68.218C94.7222 68.6847 94.8482 69.2307 94.8482 69.856C94.8482 70.444 94.7409 70.9993 94.5262 71.522C94.3116 72.0353 94.0176 72.488 93.6442 72.88C93.2709 73.272 92.8416 73.58 92.3562 73.804C91.8709 74.028 91.3529 74.14 90.8022 74.14ZM90.8582 73.188C91.2409 73.188 91.6049 73.104 91.9502 72.936C92.2956 72.7587 92.5989 72.5207 92.8602 72.222C93.1216 71.914 93.3269 71.5593 93.4762 71.158C93.6256 70.7567 93.7002 70.3273 93.7002 69.87C93.7002 69.198 93.5229 68.666 93.1682 68.274C92.8229 67.8727 92.3469 67.672 91.7402 67.672C91.3482 67.672 90.9796 67.756 90.6342 67.924C90.2982 68.092 89.9996 68.3253 89.7382 68.624C89.4862 68.9227 89.2856 69.2727 89.1362 69.674C88.9869 70.066 88.9122 70.4907 88.9122 70.948C88.9122 71.6293 89.0896 72.1753 89.4442 72.586C89.7989 72.9873 90.2702 73.188 90.8582 73.188ZM95.772 74L97.41 66.86H98.46L98.082 68.54H98.152L96.892 74H95.772ZM100.574 74L101.582 69.618C101.731 68.9833 101.694 68.5027 101.47 68.176C101.246 67.84 100.887 67.672 100.392 67.672C99.7947 67.672 99.258 67.8867 98.782 68.316C98.306 68.736 97.9794 69.3147 97.802 70.052L98.012 68.302C98.3667 67.798 98.7914 67.4107 99.286 67.14C99.79 66.86 100.317 66.72 100.868 66.72C101.605 66.72 102.156 66.944 102.52 67.392C102.884 67.84 102.949 68.5633 102.716 69.562L101.694 74H100.574ZM105.39 74L106.398 69.618C106.547 68.9833 106.51 68.5027 106.286 68.176C106.062 67.84 105.703 67.672 105.208 67.672C104.611 67.672 104.069 67.8867 103.584 68.316C103.108 68.7453 102.772 69.3333 102.576 70.08L102.646 68.47C103.001 67.882 103.444 67.4433 103.976 67.154C104.508 66.8647 105.031 66.72 105.544 66.72C106.057 66.72 106.487 66.8367 106.832 67.07C107.177 67.3033 107.415 67.6347 107.546 68.064C107.677 68.484 107.672 68.9833 107.532 69.562L106.51 74H105.39ZM114.659 74.154C114.09 74.154 113.595 74.028 113.175 73.776C112.755 73.5147 112.428 73.1553 112.195 72.698C111.962 72.2313 111.845 71.69 111.845 71.074C111.845 70.5887 111.91 70.1313 112.041 69.702C112.181 69.2727 112.372 68.876 112.615 68.512C112.867 68.148 113.161 67.8353 113.497 67.574C113.833 67.3127 114.202 67.112 114.603 66.972C115.004 66.8227 115.429 66.748 115.877 66.748C116.26 66.748 116.61 66.8087 116.927 66.93C117.244 67.0513 117.52 67.224 117.753 67.448C117.986 67.6627 118.168 67.924 118.299 68.232C118.43 68.5307 118.495 68.862 118.495 69.226H117.459C117.45 68.9087 117.375 68.638 117.235 68.414C117.095 68.19 116.904 68.0173 116.661 67.896C116.418 67.7653 116.129 67.7 115.793 67.7C115.476 67.7 115.177 67.756 114.897 67.868C114.617 67.98 114.36 68.1433 114.127 68.358C113.894 68.5633 113.693 68.806 113.525 69.086C113.357 69.366 113.226 69.6787 113.133 70.024C113.04 70.3693 112.993 70.7333 112.993 71.116C112.993 71.7787 113.147 72.2967 113.455 72.67C113.763 73.034 114.197 73.216 114.757 73.216C115.261 73.216 115.709 73.076 116.101 72.796C116.493 72.516 116.778 72.1333 116.955 71.648H117.991C117.739 72.4133 117.31 73.0247 116.703 73.482C116.106 73.93 115.424 74.154 114.659 74.154ZM122.405 74.14C121.807 74.14 121.28 74.0093 120.823 73.748C120.365 73.4773 120.006 73.104 119.745 72.628C119.493 72.152 119.367 71.6013 119.367 70.976C119.367 70.388 119.469 69.8373 119.675 69.324C119.889 68.8107 120.179 68.358 120.543 67.966C120.916 67.574 121.345 67.2707 121.831 67.056C122.316 66.832 122.839 66.72 123.399 66.72C124.015 66.72 124.551 66.8507 125.009 67.112C125.466 67.3733 125.821 67.742 126.073 68.218C126.325 68.6847 126.451 69.2307 126.451 69.856C126.451 70.444 126.343 70.9993 126.129 71.522C125.914 72.0353 125.62 72.488 125.247 72.88C124.873 73.272 124.444 73.58 123.959 73.804C123.473 74.028 122.955 74.14 122.405 74.14ZM122.461 73.188C122.843 73.188 123.207 73.104 123.553 72.936C123.898 72.7587 124.201 72.5207 124.463 72.222C124.724 71.914 124.929 71.5593 125.079 71.158C125.228 70.7567 125.303 70.3273 125.303 69.87C125.303 69.198 125.125 68.666 124.771 68.274C124.425 67.8727 123.949 67.672 123.343 67.672C122.951 67.672 122.582 67.756 122.237 67.924C121.901 68.092 121.602 68.3253 121.341 68.624C121.089 68.9227 120.888 69.2727 120.739 69.674C120.589 70.066 120.515 70.4907 120.515 70.948C120.515 71.6293 120.692 72.1753 121.047 72.586C121.401 72.9873 121.873 73.188 122.461 73.188ZM127.374 74L129.012 66.86H130.062L129.684 68.54H129.754L128.494 74H127.374ZM132.176 74L133.184 69.618C133.334 68.9833 133.296 68.5027 133.072 68.176C132.848 67.84 132.489 67.672 131.994 67.672C131.397 67.672 130.86 67.8867 130.384 68.316C129.908 68.736 129.582 69.3147 129.404 70.052L129.614 68.302C129.969 67.798 130.394 67.4107 130.888 67.14C131.392 66.86 131.92 66.72 132.47 66.72C133.208 66.72 133.758 66.944 134.122 67.392C134.486 67.84 134.552 68.5633 134.318 69.562L133.296 74H132.176ZM136.992 74L138 69.618C138.15 68.9833 138.112 68.5027 137.888 68.176C137.664 67.84 137.305 67.672 136.81 67.672C136.213 67.672 135.672 67.8867 135.186 68.316C134.71 68.7453 134.374 69.3333 134.178 70.08L134.248 68.47C134.603 67.882 135.046 67.4433 135.578 67.154C136.11 66.8647 136.633 66.72 137.146 66.72C137.66 66.72 138.089 66.8367 138.434 67.07C138.78 67.3033 139.018 67.6347 139.148 68.064C139.279 68.484 139.274 68.9833 139.134 69.562L138.112 74H136.992ZM144.103 74.126C143.627 74.126 143.211 74.0373 142.857 73.86C142.502 73.6733 142.227 73.4167 142.031 73.09C141.835 72.7633 141.732 72.39 141.723 71.97L141.947 71.956L140.799 76.87H139.679L141.989 66.86H143.039L142.703 68.288L142.633 68.232C142.903 67.7467 143.272 67.3733 143.739 67.112C144.215 66.8507 144.737 66.72 145.307 66.72C146.137 66.72 146.791 66.986 147.267 67.518C147.743 68.0407 147.981 68.7593 147.981 69.674C147.981 70.29 147.878 70.8687 147.673 71.41C147.477 71.942 147.197 72.4133 146.833 72.824C146.478 73.2253 146.067 73.5427 145.601 73.776C145.134 74.0093 144.635 74.126 144.103 74.126ZM144.061 73.146C144.453 73.146 144.817 73.062 145.153 72.894C145.489 72.7167 145.783 72.4787 146.035 72.18C146.287 71.872 146.483 71.5173 146.623 71.116C146.763 70.7147 146.833 70.29 146.833 69.842C146.833 69.1793 146.669 68.6567 146.343 68.274C146.025 67.8913 145.577 67.7 144.999 67.7C144.691 67.7 144.392 67.756 144.103 67.868C143.823 67.98 143.566 68.1387 143.333 68.344C143.099 68.54 142.894 68.778 142.717 69.058C142.539 69.3287 142.404 69.6273 142.311 69.954C142.217 70.2807 142.171 70.6213 142.171 70.976C142.171 71.648 142.343 72.18 142.689 72.572C143.034 72.9547 143.491 73.146 144.061 73.146ZM152.187 74.14C151.589 74.14 151.062 74.0093 150.605 73.748C150.147 73.4773 149.788 73.104 149.527 72.628C149.275 72.152 149.149 71.6013 149.149 70.976C149.149 70.388 149.251 69.8373 149.457 69.324C149.671 68.8107 149.961 68.358 150.325 67.966C150.698 67.574 151.127 67.2707 151.613 67.056C152.098 66.832 152.621 66.72 153.181 66.72C153.797 66.72 154.333 66.8507 154.791 67.112C155.248 67.3733 155.603 67.742 155.855 68.218C156.107 68.6847 156.233 69.2307 156.233 69.856C156.233 70.444 156.125 70.9993 155.911 71.522C155.696 72.0353 155.402 72.488 155.029 72.88C154.655 73.272 154.226 73.58 153.741 73.804C153.255 74.028 152.737 74.14 152.187 74.14ZM152.243 73.188C152.625 73.188 152.989 73.104 153.335 72.936C153.68 72.7587 153.983 72.5207 154.245 72.222C154.506 71.914 154.711 71.5593 154.861 71.158C155.01 70.7567 155.085 70.3273 155.085 69.87C155.085 69.198 154.907 68.666 154.553 68.274C154.207 67.8727 153.731 67.672 153.125 67.672C152.733 67.672 152.364 67.756 152.019 67.924C151.683 68.092 151.384 68.3253 151.123 68.624C150.871 68.9227 150.67 69.2727 150.521 69.674C150.371 70.066 150.297 70.4907 150.297 70.948C150.297 71.6293 150.474 72.1753 150.829 72.586C151.183 72.9873 151.655 73.188 152.243 73.188ZM157.157 74L158.795 66.86H159.845L159.467 68.54H159.537L158.277 74H157.157ZM162.253 74L163.261 69.618C163.41 68.9833 163.363 68.5027 163.121 68.176C162.878 67.84 162.477 67.672 161.917 67.672C161.254 67.672 160.675 67.8867 160.181 68.316C159.695 68.736 159.364 69.3147 159.187 70.052L159.397 68.302C159.751 67.798 160.176 67.4107 160.671 67.14C161.175 66.86 161.702 66.72 162.253 66.72C163.093 66.72 163.709 66.9767 164.101 67.49C164.493 68.0033 164.591 68.694 164.395 69.562L163.373 74H162.253ZM168.883 74.14C168.277 74.14 167.745 74.0093 167.287 73.748C166.83 73.4867 166.475 73.1227 166.223 72.656C165.971 72.18 165.845 71.6293 165.845 71.004C165.845 70.528 165.911 70.0753 166.041 69.646C166.181 69.2167 166.373 68.8247 166.615 68.47C166.858 68.1153 167.147 67.8073 167.483 67.546C167.819 67.2847 168.188 67.084 168.589 66.944C168.991 66.7947 169.415 66.72 169.863 66.72C170.442 66.72 170.946 66.8367 171.375 67.07C171.814 67.3033 172.15 67.63 172.383 68.05C172.626 68.47 172.747 68.96 172.747 69.52C172.747 69.7347 172.724 69.9493 172.677 70.164C172.64 70.3693 172.575 70.57 172.481 70.766H166.699L166.909 69.828H171.991L171.515 70.584C171.599 70.2387 171.637 69.898 171.627 69.562C171.627 69.2167 171.562 68.904 171.431 68.624C171.31 68.3347 171.119 68.106 170.857 67.938C170.596 67.7607 170.246 67.672 169.807 67.672C169.499 67.672 169.205 67.728 168.925 67.84C168.645 67.952 168.389 68.1107 168.155 68.316C167.922 68.512 167.717 68.75 167.539 69.03C167.362 69.3007 167.227 69.604 167.133 69.94C167.04 70.2667 166.993 70.612 166.993 70.976C166.993 71.6667 167.175 72.208 167.539 72.6C167.903 72.992 168.403 73.188 169.037 73.188C169.467 73.188 169.84 73.0947 170.157 72.908C170.475 72.712 170.745 72.418 170.969 72.026H172.033C171.688 72.7353 171.249 73.2673 170.717 73.622C170.185 73.9673 169.574 74.14 168.883 74.14ZM173.566 74L175.204 66.86H176.254L175.876 68.54H175.946L174.686 74H173.566ZM178.662 74L179.67 69.618C179.819 68.9833 179.773 68.5027 179.53 68.176C179.287 67.84 178.886 67.672 178.326 67.672C177.663 67.672 177.085 67.8867 176.59 68.316C176.105 68.736 175.773 69.3147 175.596 70.052L175.806 68.302C176.161 67.798 176.585 67.4107 177.08 67.14C177.584 66.86 178.111 66.72 178.662 66.72C179.502 66.72 180.118 66.9767 180.51 67.49C180.902 68.0033 181 68.694 180.804 69.562L179.782 74H178.662ZM184.696 74.126C183.902 74.126 183.366 73.9253 183.086 73.524C182.806 73.1133 182.745 72.5673 182.904 71.886L184.444 65.194L185.662 64.774L183.982 72.054C183.898 72.4367 183.935 72.7213 184.094 72.908C184.262 73.0853 184.574 73.174 185.032 73.174C185.218 73.174 185.377 73.1647 185.508 73.146C185.648 73.118 185.764 73.0853 185.858 73.048L185.648 74C185.545 74.0373 185.414 74.0653 185.256 74.084C185.097 74.112 184.91 74.126 184.696 74.126ZM182.372 67.812L182.582 66.86H187.286L187.076 67.812H182.372ZM91.1079 91L93.4319 80.92H94.5519L92.2279 91H91.1079ZM96.2179 91L97.226 86.618C97.3753 85.9833 97.3286 85.5027 97.0859 85.176C96.8433 84.84 96.4419 84.672 95.8819 84.672C95.2193 84.672 94.6406 84.8867 94.1459 85.316C93.6606 85.736 93.3246 86.3147 93.1379 87.052L93.3479 85.302C93.7119 84.798 94.1413 84.4107 94.6359 84.14C95.1399 83.86 95.6673 83.72 96.2179 83.72C97.0579 83.72 97.6739 83.9767 98.0659 84.49C98.4579 85.0033 98.5559 85.694 98.36 86.562L97.3379 91H96.2179ZM102.849 91.14C102.242 91.14 101.71 91.0093 101.253 90.748C100.795 90.4867 100.441 90.1227 100.189 89.656C99.9368 89.18 99.8108 88.6293 99.8108 88.004C99.8108 87.528 99.8761 87.0753 100.007 86.646C100.147 86.2167 100.338 85.8247 100.581 85.47C100.823 85.1153 101.113 84.8073 101.449 84.546C101.785 84.2847 102.153 84.084 102.555 83.944C102.956 83.7947 103.381 83.72 103.829 83.72C104.407 83.72 104.911 83.8367 105.341 84.07C105.779 84.3033 106.115 84.63 106.349 85.05C106.591 85.47 106.713 85.96 106.713 86.52C106.713 86.7347 106.689 86.9493 106.643 87.164C106.605 87.3693 106.54 87.57 106.447 87.766H100.665L100.875 86.828H105.957L105.481 87.584C105.565 87.2387 105.602 86.898 105.593 86.562C105.593 86.2167 105.527 85.904 105.397 85.624C105.275 85.3347 105.084 85.106 104.823 84.938C104.561 84.7607 104.211 84.672 103.773 84.672C103.465 84.672 103.171 84.728 102.891 84.84C102.611 84.952 102.354 85.1107 102.121 85.316C101.887 85.512 101.682 85.75 101.505 86.03C101.327 86.3007 101.192 86.604 101.099 86.94C101.005 87.2667 100.959 87.612 100.959 87.976C100.959 88.6667 101.141 89.208 101.505 89.6C101.869 89.992 102.368 90.188 103.003 90.188C103.432 90.188 103.805 90.0947 104.123 89.908C104.44 89.712 104.711 89.418 104.935 89.026H105.999C105.653 89.7353 105.215 90.2673 104.683 90.622C104.151 90.9673 103.539 91.14 102.849 91.14ZM107.517 91L109.169 83.86H110.219L109.799 85.68H109.869L108.637 91H107.517ZM109.547 87.038L109.743 85.33C109.986 84.854 110.331 84.4667 110.779 84.168C111.237 83.8693 111.741 83.72 112.291 83.72C112.45 83.72 112.585 83.734 112.697 83.762C112.809 83.7807 112.898 83.804 112.963 83.832L112.711 84.91C112.637 84.882 112.52 84.8587 112.361 84.84C112.212 84.812 112.067 84.798 111.927 84.798C111.321 84.798 110.812 84.9893 110.401 85.372C109.991 85.7547 109.706 86.31 109.547 87.038ZM115.881 91.14C115.275 91.14 114.743 91.0093 114.285 90.748C113.828 90.4867 113.473 90.1227 113.221 89.656C112.969 89.18 112.843 88.6293 112.843 88.004C112.843 87.528 112.909 87.0753 113.039 86.646C113.179 86.2167 113.371 85.8247 113.613 85.47C113.856 85.1153 114.145 84.8073 114.481 84.546C114.817 84.2847 115.186 84.084 115.587 83.944C115.989 83.7947 116.413 83.72 116.861 83.72C117.44 83.72 117.944 83.8367 118.373 84.07C118.812 84.3033 119.148 84.63 119.381 85.05C119.624 85.47 119.745 85.96 119.745 86.52C119.745 86.7347 119.722 86.9493 119.675 87.164C119.638 87.3693 119.573 87.57 119.479 87.766H113.697L113.907 86.828H118.989L118.513 87.584C118.597 87.2387 118.635 86.898 118.625 86.562C118.625 86.2167 118.56 85.904 118.429 85.624C118.308 85.3347 118.117 85.106 117.855 84.938C117.594 84.7607 117.244 84.672 116.805 84.672C116.497 84.672 116.203 84.728 115.923 84.84C115.643 84.952 115.387 85.1107 115.153 85.316C114.92 85.512 114.715 85.75 114.537 86.03C114.36 86.3007 114.225 86.604 114.131 86.94C114.038 87.2667 113.991 87.612 113.991 87.976C113.991 88.6667 114.173 89.208 114.537 89.6C114.901 89.992 115.401 90.188 116.035 90.188C116.465 90.188 116.838 90.0947 117.155 89.908C117.473 89.712 117.743 89.418 117.967 89.026H119.031C118.686 89.7353 118.247 90.2673 117.715 90.622C117.183 90.9673 116.572 91.14 115.881 91.14Z" fill="#4D4D4D"/>
</svg>
