<svg width="20" height="20" viewBox="0 0 20 20" fill="none" xmlns="http://www.w3.org/2000/svg">
<path d="M15.8337 1.66663H4.16699C3.50395 1.66663 2.86807 1.93002 2.39923 2.39886C1.93038 2.8677 1.66699 3.50358 1.66699 4.16663V5.14163C1.66687 5.48575 1.7378 5.82618 1.87533 6.14163V6.19163C1.99306 6.4591 2.15982 6.70218 2.36699 6.90829L7.50033 12.0083V17.5C7.50004 17.6416 7.53586 17.7809 7.60439 17.9049C7.67291 18.0288 7.7719 18.1332 7.89199 18.2083C8.02461 18.2905 8.17764 18.3338 8.33366 18.3333C8.46411 18.3325 8.59256 18.3011 8.70866 18.2416L12.042 16.575C12.1794 16.5057 12.295 16.3998 12.3759 16.2688C12.4568 16.1379 12.4999 15.9872 12.5003 15.8333V12.0083L17.6003 6.90829C17.8075 6.70218 17.9743 6.4591 18.092 6.19163V6.14163C18.241 5.82865 18.3233 5.48811 18.3337 5.14163V4.16663C18.3337 3.50358 18.0703 2.8677 17.6014 2.39886C17.1326 1.93002 16.4967 1.66663 15.8337 1.66663ZM11.0753 11.075C10.9981 11.1528 10.937 11.2452 10.8955 11.3467C10.854 11.4482 10.833 11.557 10.8337 11.6666V15.3166L9.16699 16.15V11.6666C9.16763 11.557 9.14661 11.4482 9.10513 11.3467C9.06366 11.2452 9.00256 11.1528 8.92533 11.075L4.50866 6.66663H15.492L11.0753 11.075ZM16.667 4.99996H3.33366V4.16663C3.33366 3.94561 3.42146 3.73365 3.57774 3.57737C3.73402 3.42109 3.94598 3.33329 4.16699 3.33329H15.8337C16.0547 3.33329 16.2666 3.42109 16.4229 3.57737C16.5792 3.73365 16.667 3.94561 16.667 4.16663V4.99996Z" fill="#B3B3B3"/>
</svg>
