<svg width="12" height="12" viewBox="0 0 12 12" fill="none" xmlns="http://www.w3.org/2000/svg">
<path d="M8.77003 4.53007C7.88503 4.53007 7.16504 3.81007 7.16504 2.92507C7.16504 2.04007 7.88503 1.32007 8.77003 1.32007C9.65503 1.32007 10.375 2.04007 10.375 2.92507C10.375 3.81007 9.65503 4.53007 8.77003 4.53007ZM8.77003 2.06507C8.30003 2.06507 7.91504 2.45007 7.91504 2.92007C7.91504 3.39007 8.30003 3.77507 8.77003 3.77507C9.24003 3.77507 9.62504 3.39007 9.62504 2.92007C9.62504 2.45007 9.24003 2.06507 8.77003 2.06507Z" fill="#B3B3B3"/>
<path d="M3.23 4.53007C2.345 4.53007 1.625 3.81007 1.625 2.92507C1.625 2.04007 2.345 1.32007 3.23 1.32007C4.115 1.32007 4.835 2.04007 4.835 2.92507C4.835 3.81007 4.115 4.53007 3.23 4.53007ZM3.23 2.06507C2.76 2.06507 2.375 2.45007 2.375 2.92007C2.375 3.39007 2.76 3.77507 3.23 3.77507C3.7 3.77507 4.085 3.39007 4.085 2.92007C4.085 2.45007 3.705 2.06507 3.23 2.06507Z" fill="#B3B3B3"/>
<path d="M8.77003 10.685C7.88503 10.685 7.16504 9.96498 7.16504 9.07998C7.16504 8.19498 7.88503 7.47498 8.77003 7.47498C9.65503 7.47498 10.375 8.19498 10.375 9.07998C10.375 9.96498 9.65503 10.685 8.77003 10.685ZM8.77003 8.21998C8.30003 8.21998 7.91504 8.60498 7.91504 9.07498C7.91504 9.54498 8.30003 9.92998 8.77003 9.92998C9.24003 9.92998 9.62504 9.54498 9.62504 9.07498C9.62504 8.60498 9.24003 8.21998 8.77003 8.21998Z" fill="#B3B3B3"/>
<path d="M3.23 10.685C2.345 10.685 1.625 9.96498 1.625 9.07998C1.625 8.19498 2.345 7.47498 3.23 7.47498C4.115 7.47498 4.835 8.19498 4.835 9.07998C4.835 9.96498 4.115 10.685 3.23 10.685ZM3.23 8.21998C2.76 8.21998 2.375 8.60498 2.375 9.07498C2.375 9.54498 2.76 9.92998 3.23 9.92998C3.7 9.92998 4.085 9.54498 4.085 9.07498C4.085 8.60498 3.705 8.21998 3.23 8.21998Z" fill="#B3B3B3"/>
</svg>
