<svg width="88" height="29" viewBox="0 0 88 29" fill="none" xmlns="http://www.w3.org/2000/svg">
<rect y="2.125" width="24" height="24" rx="8" fill="#16191C"/>
<rect x="4" y="6.875" width="20" height="20" rx="4" fill="white"/>
<path d="M33.2 22V7.816H36.032L38.408 17.896L40.808 7.816H43.616V22H41.576V11.056L39.2 22H37.616L35.24 11.056V22H33.2ZM45.8289 22V10.12H48.0849V22H45.8289ZM46.9569 8.728C46.6369 8.728 46.3649 8.624 46.1409 8.416C45.9329 8.208 45.8289 7.952 45.8289 7.648C45.8289 7.344 45.9329 7.088 46.1409 6.88C46.3649 6.672 46.6369 6.568 46.9569 6.568C47.2609 6.568 47.5249 6.672 47.7489 6.88C47.9889 7.088 48.1089 7.344 48.1089 7.648C48.1089 7.952 47.9889 8.208 47.7489 8.416C47.5249 8.624 47.2609 8.728 46.9569 8.728ZM50.1414 22V10.12H52.0374L52.2534 11.464C52.3974 10.984 52.6854 10.6 53.1174 10.312C53.5654 10.024 54.0454 9.88 54.5574 9.88C55.3414 9.88 55.9254 10.024 56.3094 10.312C56.7094 10.584 56.9734 10.96 57.1014 11.44C57.2294 11.904 57.2934 12.44 57.2934 13.048V22H55.0374V13.216C55.0374 12.992 55.0294 12.784 55.0134 12.592C54.9974 12.384 54.9494 12.2 54.8694 12.04C54.7894 11.88 54.6614 11.752 54.4854 11.656C54.3094 11.56 54.0534 11.512 53.7174 11.512C53.4454 11.512 53.2134 11.56 53.0214 11.656C52.8454 11.752 52.7094 11.872 52.6134 12.016C52.5174 12.144 52.4454 12.272 52.3974 12.4V22H50.1414ZM62.5963 22.192C61.7803 22.192 61.1003 22.104 60.5563 21.928C60.0283 21.736 59.6283 21.376 59.3563 20.848C59.1003 20.32 58.9723 19.528 58.9723 18.472V12.904C58.9723 11.752 59.2603 10.968 59.8363 10.552C60.4123 10.12 61.3083 9.904 62.5243 9.904C63.7403 9.904 64.6363 10.12 65.2122 10.552C65.7883 10.968 66.0763 11.752 66.0763 12.904V16.072H61.2283V19.36C61.2283 19.952 61.3163 20.368 61.4923 20.608C61.6843 20.848 62.0443 20.968 62.5723 20.968C63.0523 20.968 63.3803 20.856 63.5563 20.632C63.7323 20.392 63.8203 19.968 63.8203 19.36V17.608H66.0763V18.448C66.0763 19.488 65.9403 20.28 65.6683 20.824C65.4123 21.368 65.0283 21.736 64.5163 21.928C64.0043 22.104 63.3643 22.192 62.5963 22.192ZM61.2283 15.016H63.8203V12.808C63.8203 12.264 63.7323 11.872 63.5563 11.632C63.3803 11.392 63.0363 11.272 62.5243 11.272C62.0283 11.272 61.6843 11.392 61.4923 11.632C61.3163 11.872 61.2283 12.264 61.2283 12.808V15.016ZM67.9578 22V7.816H74.3418V9.448H70.3578V13.744H73.6458V15.544H70.3578V22H67.9578ZM75.7351 22V6.808H77.9911V22H75.7351ZM83.4076 22.192C82.6236 22.192 81.9596 22.096 81.4156 21.904C80.8876 21.696 80.4876 21.32 80.2156 20.776C79.9596 20.232 79.8316 19.448 79.8316 18.424V13.192C79.8316 11.992 80.1196 11.144 80.6956 10.648C81.2716 10.152 82.1756 9.904 83.4076 9.904C84.6236 9.904 85.5196 10.152 86.0956 10.648C86.6716 11.128 86.9596 11.976 86.9596 13.192V18.424C86.9596 19.448 86.8236 20.232 86.5516 20.776C86.2956 21.32 85.9036 21.696 85.3756 21.904C84.8476 22.096 84.1916 22.192 83.4076 22.192ZM83.4076 20.824C83.8716 20.824 84.1996 20.704 84.3916 20.464C84.5996 20.208 84.7036 19.76 84.7036 19.12V13C84.7036 12.376 84.6076 11.936 84.4156 11.68C84.2236 11.424 83.8876 11.296 83.4076 11.296C82.9436 11.296 82.6076 11.424 82.3996 11.68C82.1916 11.92 82.0876 12.36 82.0876 13V19.12C82.0876 19.76 82.1916 20.208 82.3996 20.464C82.6076 20.704 82.9436 20.824 83.4076 20.824Z" fill="#16191C"/>
</svg>
