<svg width="24" height="24" viewBox="0 0 24 24" fill="none" xmlns="http://www.w3.org/2000/svg">
<g id="clock-01">
<path id="Vector" d="M15.2837 15.3487C15.8076 15.5234 16.3739 15.2402 16.5486 14.7163C16.7232 14.1923 16.4401 13.626 15.9161 13.4513L15.2837 15.3487ZM11.9999 13.2H10.9999C10.9999 13.6305 11.2753 14.0126 11.6837 14.1487L11.9999 13.2ZM12.9999 8.18228C12.9999 7.63 12.5522 7.18228 11.9999 7.18228C11.4476 7.18228 10.9999 7.63 10.9999 8.18228H12.9999ZM15.9161 13.4513L12.3161 12.2513L11.6837 14.1487L15.2837 15.3487L15.9161 13.4513ZM12.9999 13.2V8.18228H10.9999V13.2H12.9999ZM20.5999 12C20.5999 16.7497 16.7495 20.6 11.9999 20.6V22.6C17.8541 22.6 22.5999 17.8542 22.5999 12H20.5999ZM11.9999 20.6C7.25025 20.6 3.3999 16.7497 3.3999 12H1.3999C1.3999 17.8542 6.14568 22.6 11.9999 22.6V20.6ZM3.3999 12C3.3999 7.25037 7.25025 3.40002 11.9999 3.40002V1.40002C6.14568 1.40002 1.3999 6.14581 1.3999 12H3.3999ZM11.9999 3.40002C16.7495 3.40002 20.5999 7.25037 20.5999 12H22.5999C22.5999 6.14581 17.8541 1.40002 11.9999 1.40002V3.40002Z" fill="#F5F5F5"/>
</g>
</svg>
