<svg width="24" height="24" viewBox="0 0 24 24" fill="none" xmlns="http://www.w3.org/2000/svg">
<path d="M21 18.3V11.7C21.6 11.4 22 10.7 22 10C22 8.9 21.1 8 20 8C19.3 8 18.6 8.4 18.3 9H15V5.7C15.6 5.4 16 4.7 16 4C16 2.9 15.1 2 14 2C13.3 2 12.6 2.4 12.3 3H5.7C5.4 2.4 4.7 2 4 2C2.9 2 2 2.9 2 4C2 4.7 2.4 5.4 3 5.7V12.3C2.4 12.6 2 13.3 2 14C2 15.1 2.9 16 4 16C4.7 16 5.4 15.6 5.7 15H9V18.3C8.4 18.6 8 19.3 8 20C8 21.1 8.9 22 10 22C10.7 22 11.4 21.6 11.7 21H18.3C18.6 21.6 19.3 22 20 22C21.1 22 22 21.1 22 20C22 19.3 21.6 18.6 21 18.3ZM5.7 13C5.5 12.7 5.3 12.5 5 12.3V5.7C5.3 5.5 5.5 5.3 5.7 5H12.3C12.5 5.3 12.7 5.5 13 5.7V9H11.7C11.4 8.4 10.7 8 10 8C8.9 8 8 8.9 8 10C8 10.7 8.4 11.4 9 11.7V13H5.7ZM13 12.3C12.7 12.5 12.5 12.7 12.3 13H11V11.7C11.3 11.5 11.5 11.3 11.7 11H13V12.3ZM12.3 15C12.6 15.6 13.3 16 14 16C15.1 16 16 15.1 16 14C16 13.3 15.6 12.6 15 12.3V11H18.3C18.5 11.3 18.7 11.5 19 11.7V18.3C18.7 18.5 18.5 18.7 18.3 19H11.7C11.5 18.7 11.3 18.5 11 18.3V15H12.3Z" fill="#17181A"/>
</svg>
