<svg width="25" height="26" viewBox="0 0 25 26" fill="none" xmlns="http://www.w3.org/2000/svg">
<g clip-path="url(#clip0_173_1498)">
<path d="M20.0394 6.46043L8.77028 3.44087C8.12983 3.26926 7.44745 3.3591 6.87324 3.69062C6.29903 4.02214 5.88003 4.56819 5.70842 5.20864L5.45607 6.15042C5.36689 6.48278 5.34729 6.82997 5.39849 7.17026L5.38555 7.21856C5.43004 7.50739 5.52821 7.78535 5.67497 8.03806L9.31342 14.2929L7.89207 19.5974C7.85514 19.7341 7.85366 19.878 7.88778 20.0155C7.9219 20.1529 7.99048 20.2794 8.08706 20.383C8.19389 20.4967 8.33049 20.5781 8.48132 20.618C8.60753 20.6511 8.73973 20.654 8.86727 20.6266L12.5184 19.8794C12.6691 19.8481 12.8081 19.7757 12.9201 19.6702C13.0322 19.5646 13.1128 19.4302 13.1531 19.2816L14.143 15.587L20.3892 11.9807C20.6427 11.8353 20.8667 11.6436 21.0496 11.4157L21.0626 11.3674C21.2875 11.1037 21.4552 10.7961 21.5548 10.4641L21.8072 9.52229C21.9788 8.88184 21.889 8.19945 21.5574 7.62524C21.2259 7.05103 20.6799 6.63203 20.0394 6.46043ZM13.0082 14.3166C12.9134 14.3719 12.8305 14.4452 12.7642 14.5326C12.6978 14.6199 12.6494 14.7195 12.6216 14.8256L11.6769 18.3512L9.85135 18.7248L11.0117 14.3942C11.0407 14.2885 11.0486 14.178 11.0348 14.0692C11.021 13.9604 10.9859 13.8554 10.9314 13.7602L7.80621 8.35893L18.4153 11.2016L13.0082 14.3166ZM19.9816 9.89586L7.10262 6.44494L7.3183 5.64C7.3755 5.42652 7.51517 5.2445 7.70657 5.134C7.89797 5.02349 8.12544 4.99354 8.33892 5.05075L19.6081 8.0703C19.8215 8.12751 20.0036 8.26717 20.1141 8.45857C20.2246 8.64998 20.2545 8.87744 20.1973 9.09092L19.9816 9.89586Z" fill="#B3B3B3"/>
</g>
<defs>
<clipPath id="clip0_173_1498">
<rect width="20" height="20" fill="white" transform="translate(5.17676 0.752563) rotate(15)"/>
</clipPath>
</defs>
</svg>
